<?xml version="1.0" encoding="UTF-8" standalone="no"?>
<!-- Created with Inkscape (http://www.inkscape.org/) -->

<svg
   xmlns:dc="http://purl.org/dc/elements/1.1/"
   xmlns:cc="http://creativecommons.org/ns#"
   xmlns:rdf="http://www.w3.org/1999/02/22-rdf-syntax-ns#"
   xmlns:svg="http://www.w3.org/2000/svg"
   xmlns="http://www.w3.org/2000/svg"
   xmlns:xlink="http://www.w3.org/1999/xlink"
   xmlns:sodipodi="http://sodipodi.sourceforge.net/DTD/sodipodi-0.dtd"
   xmlns:inkscape="http://www.inkscape.org/namespaces/inkscape"
   width="32"
   height="32"
   id="svg2"
   version="1.1"
   inkscape:version="0.48+devel r"
   sodipodi:docname="LogoFavicon2.svg"
   inkscape:export-filename="/home/rolandixor/SparkleShare/2buntu-django-blog/common/static/favicon.png"
   inkscape:export-xdpi="45"
   inkscape:export-ydpi="45">
  <defs
     id="defs4">
    <linearGradient
       inkscape:collect="always"
       id="linearGradient1096">
      <stop
         style="stop-color:#ffffff;stop-opacity:1;"
         offset="0"
         id="stop1098" />
      <stop
         style="stop-color:#ffffff;stop-opacity:0;"
         offset="1"
         id="stop1100" />
    </linearGradient>
    <linearGradient
       id="linearGradient3827-8">
      <stop
         style="stop-color:#ffffff;stop-opacity:1"
         offset="0"
         id="stop1078" />
      <stop
         style="stop-color:#ffffff;stop-opacity:1"
         offset="1"
         id="stop1080" />
    </linearGradient>
    <linearGradient
       inkscape:collect="always"
       id="linearGradient5448">
      <stop
         style="stop-color:#232323;stop-opacity:1"
         offset="0"
         id="stop5450" />
      <stop
         id="stop5460"
         offset="0.47184721"
         style="stop-color:#141414;stop-opacity:1" />
      <stop
         style="stop-color:#000000;stop-opacity:1"
         offset="0.84616351"
         id="stop5462" />
      <stop
         id="stop5241"
         offset="0.95722175"
         style="stop-color:#000000;stop-opacity:1" />
      <stop
         id="stop5456"
         offset="0.97084343"
         style="stop-color:#cdcdcd;stop-opacity:1" />
      <stop
         style="stop-color:#ffffff;stop-opacity:1"
         offset="0.97742087"
         id="stop5458" />
      <stop
         style="stop-color:#414141;stop-opacity:0"
         offset="1"
         id="stop5452" />
    </linearGradient>
    <linearGradient
       id="linearGradient3966">
      <stop
         style="stop-color:#c3c3c3;stop-opacity:1;"
         offset="0"
         id="stop3968" />
      <stop
         style="stop-color:#ffffff;stop-opacity:0.29411766;"
         offset="1"
         id="stop3970" />
    </linearGradient>
    <linearGradient
       id="linearGradient3819">
      <stop
         style="stop-color:#d02dff;stop-opacity:1;"
         offset="0"
         id="stop3821" />
      <stop
         style="stop-color:#7e44e8;stop-opacity:1;"
         offset="1"
         id="stop3823" />
    </linearGradient>
    <linearGradient
       id="linearGradient3974-5">
      <stop
         id="stop3976-7"
         offset="0"
         style="stop-color:#ffffff;stop-opacity:1;" />
      <stop
         id="stop3978-5"
         offset="1"
         style="stop-color:#000000;stop-opacity:0;" />
    </linearGradient>
    <linearGradient
       id="linearGradient1082">
      <stop
         id="stop3829-0"
         offset="0"
         style="stop-color:#ffc923;stop-opacity:1;" />
      <stop
         id="stop3831-9"
         offset="1"
         style="stop-color:#ff7123;stop-opacity:1;" />
    </linearGradient>
    <radialGradient
       inkscape:collect="always"
       xlink:href="#linearGradient5448"
       id="radialGradient920"
       gradientUnits="userSpaceOnUse"
       gradientTransform="matrix(1,0,0,1.0164539,0,-4.5668346)"
       cx="245.4433"
       cy="277.55325"
       fx="245.4433"
       fy="277.55325"
       r="187.1313" />
    <radialGradient
       inkscape:collect="always"
       xlink:href="#linearGradient3827-8"
       id="radialGradient934"
       gradientUnits="userSpaceOnUse"
       gradientTransform="matrix(0.1734716,0,0,0.10192516,-32.30846,1016.4759)"
       cx="256"
       cy="796.36218"
       fx="256"
       fy="796.36218"
       r="247.91808" />
    <radialGradient
       inkscape:collect="always"
       xlink:href="#linearGradient1096"
       id="radialGradient1102"
       cx="16.058762"
       cy="1115.4345"
       fx="16.058762"
       fy="1115.4345"
       r="3.6694039"
       gradientTransform="matrix(1,0,0,1.4550363,0,-507.56326)"
       gradientUnits="userSpaceOnUse" />
  </defs>
  <sodipodi:namedview
     id="base"
     pagecolor="#ffffff"
     bordercolor="#666666"
     borderopacity="1.0"
     inkscape:pageopacity="0.0"
     inkscape:pageshadow="2"
     inkscape:zoom="17.795521"
     inkscape:cx="15.611973"
     inkscape:cy="16"
     inkscape:document-units="px"
     inkscape:current-layer="g4642"
     showgrid="false"
     inkscape:window-width="1440"
     inkscape:window-height="818"
     inkscape:window-x="0"
     inkscape:window-y="25"
     inkscape:window-maximized="1">
    <inkscape:grid
       type="xygrid"
       id="grid6321" />
  </sodipodi:namedview>
  <metadata
     id="metadata7">
    <rdf:RDF>
      <cc:Work
         rdf:about="">
        <dc:format>image/svg+xml</dc:format>
        <dc:type
           rdf:resource="http://purl.org/dc/dcmitype/StillImage" />
        <dc:title />
      </cc:Work>
    </rdf:RDF>
  </metadata>
  <g
     inkscape:label="Layer 1"
     inkscape:groupmode="layer"
     id="layer1"
     transform="translate(0,-1020.3622)">
    <g
       id="g3777"
       transform="translate(1.9009113e-6,-37.464203)">
      <g
         id="g3853"
         transform="translate(-5.5553913e-6,-32.567762)">
        <g
           id="g3863"
           transform="translate(7.5995925e-7,-6.0000003)">
          <path
             transform="matrix(0.08366123,0,0,0.0823083,-4.5340853,1089.5492)"
             d="M 431.06529,277.55325 A 185.62199,188.70103 0 0 1 245.4433,466.25429 185.62199,188.70103 0 0 1 59.821304,277.55325 185.62199,188.70103 0 0 1 245.4433,88.852219 185.62199,188.70103 0 0 1 431.06529,277.55325 Z"
             sodipodi:ry="188.70103"
             sodipodi:rx="185.62199"
             sodipodi:cy="277.55325"
             sodipodi:cx="245.4433"
             id="path896"
             style="fill:url(#radialGradient920);fill-opacity:1;fill-rule:nonzero;stroke:none"
             sodipodi:type="arc" />
          <g
             id="g4582"
             transform="translate(2.003263,3.8359583e-6)">
            <g
               id="g4588">
              <g
                 id="g4594"
                 transform="translate(0.18543053,0)">
                <g
                   id="g4632"
                   transform="translate(-2.5974376,-0.07945144)">
                  <g
                     id="g4642">
                    <g
                       id="g4836">
                      <g
                         id="text4578"
                         style="font-size:9.6694994px;font-style:normal;font-weight:normal;line-height:125%;letter-spacing:0px;word-spacing:0px;fill:#999999;fill-opacity:1;stroke:none;font-family:sans-serif">
                        <path
                           id="path4825"
                           style="letter-spacing:-0.80000001px;fill:#999999"
                           d="m 16.776059,1109.3205 0,2.5826 1.529745,0 q 0.769594,0 1.137866,-0.3163 0.372993,-0.3211 0.372993,-0.9773 0,-0.661 -0.372993,-0.9727 -0.368272,-0.3163 -1.137866,-0.3163 l -1.529745,0 z m 0,-2.899 0,2.1247 1.411709,0 q 0.698773,0 1.038716,-0.2597 0.344665,-0.2644 0.344665,-0.8026 0,-0.5336 -0.344665,-0.798 -0.339943,-0.2644 -1.038716,-0.2644 l -1.411709,0 z m -0.95373,-0.7837 2.436261,0 q 1.090651,0 1.680831,0.4532 0.590179,0.4533 0.590179,1.289 0,0.6468 -0.302172,1.0293 -0.302172,0.3824 -0.88763,0.4768 0.703494,0.1511 1.090652,0.6327 0.391879,0.4769 0.391879,1.1945 0,0.9443 -0.642115,1.459 -0.642115,0.5146 -1.827196,0.5146 l -2.530689,0 0,-7.0491 z" />
                        <path
                           id="path4827"
                           style="font-size:5px;letter-spacing:-0.55000001px;fill:#999999"
                           d="m 21.12702,1111.6078 0,-1.6553 0.449219,0 0,1.6382 q 0,0.3882 0.151367,0.5835 0.151367,0.1929 0.454102,0.1929 0.363769,0 0.57373,-0.232 0.212403,-0.2319 0.212403,-0.6323 l 0,-1.5503 0.449218,0 0,2.7344 -0.449218,0 0,-0.4199 q -0.163575,0.249 -0.38086,0.3711 -0.214843,0.1196 -0.500488,0.1196 -0.471191,0 -0.715332,-0.293 -0.244141,-0.2929 -0.244141,-0.8569 z m 1.130371,-1.7212 0,0 z" />
                        <path
                           id="path4829"
                           style="font-size:5px;letter-spacing:-0.55000001px;fill:#999999"
                           d="m 26.070185,1111.0365 0,1.6504 -0.449219,0 0,-1.6358 q 0,-0.3881 -0.151367,-0.581 -0.151367,-0.1929 -0.454102,-0.1929 -0.363769,0 -0.57373,0.232 -0.209961,0.2319 -0.209961,0.6323 l 0,1.5454 -0.45166,0 0,-2.7344 0.45166,0 0,0.4248 q 0.161133,-0.2466 0.378418,-0.3686 0.219726,-0.1221 0.505371,-0.1221 0.471191,0 0.71289,0.293 0.2417,0.2905 0.2417,0.8569 z" />
                      </g>
                      <g
                         id="text910"
                         style="font-size:24.97990608px;font-style:italic;font-variant:normal;font-weight:normal;font-stretch:normal;text-align:center;line-height:125%;letter-spacing:0px;word-spacing:0px;text-anchor:middle;fill:url(#radialGradient934);fill-opacity:1;stroke:#ffffff;stroke-width:0.22387154;stroke-miterlimit:4;stroke-opacity:0.88235294;font-family:Ouijadork;-inkscape-font-specification:Ouijadork Italic"
                         transform="scale(1.002309,0.99769631)">
                        <path
                           id="path4822"
                           style="font-style:normal;stroke:#ffffff;font-family:Penguin Attack;-inkscape-font-specification:Penguin Attack"
                           d="m 17.015925,1122.897 q -1.378286,-0.1586 -2.780966,-0.2562 -1.390483,-0.097 -2.817558,-0.097 -1.036764,0 -2.0857247,0.061 -1.0489609,0.049 -2.1589079,0.183 -0.170761,-0.024 -0.2561416,-0.1586 -0.073183,-0.1219 -0.073183,-0.2927 0,-0.2317 0.097578,-0.4757 0.1097749,-0.2439 0.280536,-0.3659 0.5976638,-0.2805 1.3051025,-0.6099 0.719636,-0.3415 1.4270748,-0.7196 0.7196364,-0.3903 1.3904834,-0.8172 0.683044,-0.4269 1.231919,-0.9026 0.707439,-0.6221 1.3173,-1.3417 0.622058,-0.7318 1.073355,-1.549 0.463494,-0.8295 0.719636,-1.7564 0.256141,-0.927 0.256141,-1.9638 0,-0.866 -0.317127,-1.5612 -0.304931,-0.7075 -0.805017,-1.1954 -0.500086,-0.5001 -1.146538,-0.7684 -0.646453,-0.2683 -1.305103,-0.2683 -0.646453,0 -1.231919,0.2439 -0.585467,0.2318 -1.036764,0.6709 -0.4512969,0.4391 -0.7196358,1.0611 -0.2561416,0.6099 -0.2561416,1.3539 0,0.4879 0.1707611,0.9392 0.1829583,0.4513 0.4878888,0.805 0.3049305,0.3415 0.7196355,0.5489 0.414706,0.2073 0.902595,0.2073 0.231747,0 0.573269,-0.1341 0.341522,-0.1342 0.646453,-0.4025 0.317127,-0.2684 0.536677,-0.6465 0.21955,-0.3903 0.21955,-0.8904 0,-0.4391 -0.268339,-0.7806 -0.268338,-0.3537 -0.890397,-0.4025 0.03659,-0.183 0.13417,-0.3537 0.109775,-0.1708 0.231747,-0.3294 0.121972,-0.1707 0.21955,-0.3293 0.09758,-0.1586 0.134169,-0.3293 0.414706,0.037 0.780622,0.2561 0.365917,0.2074 0.634256,0.5367 0.268339,0.3171 0.426903,0.7074 0.170761,0.3782 0.195155,0.7685 0,0.7684 -0.329325,1.3783 -0.317128,0.5976 -0.841608,1.0245 -0.52448,0.4147 -1.207525,0.6465 -0.670847,0.2195 -1.378286,0.2195 -0.695241,0 -1.3904826,-0.2805 -0.6952416,-0.2927 -1.2563137,-0.7806 -0.5488749,-0.5001 -0.890397,-1.1588 -0.3415222,-0.6708 -0.3415222,-1.427 0,-0.5245 0.2073528,-1.0246 0.2073527,-0.5001 0.5366776,-0.927 0.329325,-0.4391 0.7440304,-0.7928 0.4147055,-0.3537 0.8172138,-0.5977 0.6830439,-0.4025 1.4270749,-0.5976 0.756227,-0.1952 1.536849,-0.1952 0.939186,0.012 1.829583,0.3171 0.890397,0.2928 1.585639,0.8538 0.695242,0.5611 1.122144,1.3661 0.426903,0.7928 0.426903,1.793 0,1.3539 -0.487889,2.6224 -0.475691,1.2685 -1.268511,2.3907 -0.780622,1.1099 -1.792991,2.0735 -1.012369,0.9514 -2.06133,1.6832 -0.390311,0.2805 -0.683044,0.4391 -0.280537,0.1464 -0.524481,0.2562 -0.243944,0.098 -0.500086,0.1951 -0.243944,0.098 -0.5732693,0.2562 1.9515553,0 3.8055323,-0.073 1.853978,-0.085 3.634772,-0.3659 l -0.109775,2.0613 z" />
                      </g>
                      <g
                         id="text4624"
                         style="font-size:9.6694994px;font-style:normal;font-weight:normal;line-height:125%;letter-spacing:0px;word-spacing:0px;fill:#ff6600;fill-opacity:1;stroke:none;font-family:sans-serif">
                        <path
                           id="path4832"
                           style="line-height:125%;letter-spacing:1px;fill:#ff6600"
                           d="m 15.353471,1113.395 5.963173,0 0,0.8026 -2.502361,0 0,6.2465 -0.958451,0 0,-6.2465 -2.502361,0 0,-0.8026 z" />
                        <path
                           id="path4834"
                           style="line-height:125%;letter-spacing:1px;fill:#ff6600"
                           d="m 21.641478,1118.3572 0,-3.2011 0.868744,0 0,3.1681 q 0,0.7507 0.292729,1.1284 0.292729,0.373 0.878187,0.373 0.703494,0 1.109538,-0.4486 0.410765,-0.4485 0.410765,-1.2228 l 0,-2.9981 0.868744,0 0,5.288 -0.868744,0 0,-0.8121 q -0.316337,0.4816 -0.736544,0.7177 -0.415487,0.2313 -0.967895,0.2313 -0.911237,0 -1.38338,-0.5666 -0.472144,-0.5665 -0.472144,-1.6572 z m 2.186025,-3.3286 0,0 z" />
                      </g>
                    </g>
                  </g>
                </g>
              </g>
            </g>
          </g>
          <rect
             style="fill:#ffffff;fill-opacity:0;fill-rule:nonzero;stroke:none"
             id="rect3964"
             width="512"
             height="512"
             x="2.8945208e-06"
             y="616.39417" />
        </g>
      </g>
    </g>
  </g>
</svg>
